<svg width="2789" height="757" viewBox="0 0 2789 757" fill="none" xmlns="http://www.w3.org/2000/svg">
<path d="M2521.43 481.689C2503.44 481.689 2487.7 477.783 2474.2 469.972C2460.71 462.16 2450.18 451.389 2442.6 437.659C2435.26 423.692 2431.59 407.477 2431.59 389.013C2431.59 370.548 2435.14 354.451 2442.25 340.721C2449.58 326.755 2459.65 315.866 2472.43 308.054C2485.45 300.242 2500.48 296.336 2517.52 296.336C2534.57 296.336 2549.36 299.768 2561.91 306.633C2574.69 313.498 2584.63 323.322 2591.74 336.105C2599.07 348.888 2602.98 364.275 2603.45 382.266C2603.45 384.16 2603.34 386.172 2603.1 388.302C2603.1 390.433 2602.98 392.563 2602.74 394.694H2462.13C2462.13 394.931 2462.13 395.286 2462.13 395.759C2462.13 396.233 2462.13 396.706 2462.13 397.18C2462.6 408.542 2465.09 418.721 2469.59 427.717C2474.32 436.475 2480.95 443.34 2489.47 448.311C2497.99 453.283 2507.94 455.768 2519.3 455.768C2532.08 455.768 2543.09 452.572 2552.32 446.181C2561.55 439.553 2567.71 430.439 2570.79 418.84H2600.26C2597.89 430.912 2593.16 441.683 2586.05 451.152C2578.95 460.621 2569.84 468.078 2558.71 473.522C2547.82 478.967 2535.4 481.689 2521.43 481.689ZM2463.91 370.548H2572.21C2570.79 354.925 2565.1 342.97 2555.16 334.685C2545.46 326.163 2533.03 321.902 2517.88 321.902C2509.12 321.902 2500.72 323.914 2492.67 327.938C2484.86 331.963 2478.35 337.644 2473.14 344.982C2467.93 352.084 2464.85 360.606 2463.91 370.548Z" fill="#549DFF"/>
<path d="M2325.46 481.689C2307.94 481.689 2292.56 477.902 2279.3 470.327C2266.04 462.752 2255.74 452.099 2248.41 438.369C2241.3 424.403 2237.75 408.069 2237.75 389.368C2237.75 370.903 2241.42 354.688 2248.76 340.721C2256.34 326.755 2266.75 315.866 2280.01 308.054C2293.27 300.242 2308.65 296.336 2326.17 296.336C2348.42 296.336 2366.29 302.136 2379.79 313.735C2393.52 325.334 2402.28 341.076 2406.06 360.961H2375.53C2372.92 348.888 2367.24 339.419 2358.48 332.554C2349.96 325.689 2339.07 322.257 2325.81 322.257C2314.22 322.257 2304.04 325.098 2295.28 330.779C2286.52 336.46 2279.65 344.391 2274.68 354.57C2269.95 364.512 2267.58 376.111 2267.58 389.368C2267.58 402.387 2269.95 413.987 2274.68 424.166C2279.65 434.108 2286.52 441.92 2295.28 447.601C2304.04 453.046 2314.22 455.768 2325.81 455.768C2338.83 455.768 2349.61 452.336 2358.13 445.471C2366.65 438.606 2372.33 429.374 2375.17 417.774H2406.06C2402.51 437.186 2393.64 452.691 2379.43 464.29C2365.47 475.89 2347.47 481.689 2325.46 481.689Z" fill="#549DFF"/>
<path d="M2048.57 298.466H2073.78L2079.82 336.105L2073.78 328.648C2078.75 320.837 2086.21 313.498 2096.15 306.633C2106.33 299.768 2120.06 296.336 2137.34 296.336C2151.07 296.336 2163.38 299.058 2174.27 304.503C2185.4 309.947 2194.16 318.706 2200.55 330.779C2207.18 342.615 2210.49 358.594 2210.49 378.715V479.559H2181.37V380.491C2181.37 361.553 2177.11 347.231 2168.59 337.526C2160.31 327.82 2148.23 322.967 2132.37 322.967C2121.01 322.967 2111.19 325.689 2102.9 331.134C2094.85 336.342 2088.58 343.917 2084.08 353.859C2079.82 363.802 2077.69 375.519 2077.69 389.013V479.559H2048.57V298.466Z" fill="#549DFF"/>
<path d="M1933.32 481.689C1915.33 481.689 1899.59 477.783 1886.1 469.972C1872.6 462.16 1862.07 451.389 1854.49 437.659C1847.16 423.692 1843.49 407.477 1843.49 389.013C1843.49 370.548 1847.04 354.451 1854.14 340.721C1861.48 326.755 1871.54 315.866 1884.32 308.054C1897.34 300.242 1912.37 296.336 1929.42 296.336C1946.46 296.336 1961.26 299.768 1973.8 306.633C1986.59 313.498 1996.53 323.322 2003.63 336.105C2010.97 348.888 2014.87 364.275 2015.35 382.266C2015.35 384.16 2015.23 386.172 2014.99 388.302C2014.99 390.433 2014.87 392.563 2014.64 394.694H1874.02C1874.02 394.931 1874.02 395.286 1874.02 395.759C1874.02 396.233 1874.02 396.706 1874.02 397.18C1874.5 408.542 1876.98 418.721 1881.48 427.717C1886.22 436.475 1892.84 443.34 1901.37 448.311C1909.89 453.283 1919.83 455.768 1931.19 455.768C1943.98 455.768 1954.98 452.572 1964.22 446.181C1973.45 439.553 1979.6 430.439 1982.68 418.84H2012.15C2009.78 430.912 2005.05 441.683 1997.95 451.152C1990.85 460.621 1981.73 468.078 1970.61 473.522C1959.72 478.967 1947.29 481.689 1933.32 481.689ZM1875.8 370.548H1984.1C1982.68 354.925 1977 342.97 1967.06 334.685C1957.35 326.163 1944.92 321.902 1929.77 321.902C1921.01 321.902 1912.61 323.914 1904.56 327.938C1896.75 331.963 1890.24 337.644 1885.03 344.982C1879.82 352.084 1876.75 360.606 1875.8 370.548Z" fill="#549DFF"/>
<path d="M1780.87 298.465H1809.99V479.557H1780.87V298.465ZM1795.79 267.928C1790.58 267.928 1786.08 266.152 1782.29 262.602C1778.74 259.051 1776.97 254.553 1776.97 249.108C1776.97 243.664 1778.74 239.166 1782.29 235.615C1786.08 232.064 1790.58 230.289 1795.79 230.289C1801.23 230.289 1805.73 232.064 1809.28 235.615C1812.83 239.166 1814.61 243.664 1814.61 249.108C1814.61 254.553 1812.83 259.051 1809.28 262.602C1805.73 266.152 1801.23 267.928 1795.79 267.928Z" fill="#549DFF"/>
<path d="M1668.35 481.689C1650.83 481.689 1635.44 477.902 1622.19 470.327C1608.93 462.752 1598.63 452.099 1591.3 438.369C1584.19 424.403 1580.64 408.069 1580.64 389.368C1580.64 370.903 1584.31 354.688 1591.65 340.721C1599.23 326.755 1609.64 315.866 1622.9 308.054C1636.15 300.242 1651.54 296.336 1669.06 296.336C1691.31 296.336 1709.18 302.136 1722.68 313.735C1736.41 325.334 1745.16 341.076 1748.95 360.961H1718.41C1715.81 348.888 1710.13 339.419 1701.37 332.554C1692.85 325.689 1681.96 322.257 1668.7 322.257C1657.1 322.257 1646.92 325.098 1638.17 330.779C1629.41 336.46 1622.54 344.391 1617.57 354.57C1612.84 364.512 1610.47 376.111 1610.47 389.368C1610.47 402.387 1612.84 413.987 1617.57 424.166C1622.54 434.108 1629.41 441.92 1638.17 447.601C1646.92 453.046 1657.1 455.768 1668.7 455.768C1681.72 455.768 1692.49 452.336 1701.02 445.471C1709.54 438.606 1715.22 429.374 1718.06 417.774H1748.95C1745.4 437.186 1736.52 452.691 1722.32 464.29C1708.35 475.89 1690.36 481.689 1668.35 481.689Z" fill="#549DFF"/>
<path d="M1482.28 481.691C1458.84 481.691 1439.78 476.365 1425.11 465.713C1410.43 455.06 1402.86 439.792 1402.38 419.907H1432.21C1432.68 430.559 1437.3 439.437 1446.06 446.538C1455.05 453.403 1467.13 456.836 1482.28 456.836C1490.8 456.836 1498.26 455.77 1504.65 453.64C1511.27 451.273 1516.48 447.959 1520.27 443.698C1524.06 439.437 1525.95 434.584 1525.95 429.139C1525.95 421.564 1523.94 416.001 1519.92 412.45C1515.89 408.899 1510.33 406.414 1503.23 404.993C1496.12 403.573 1488.08 402.39 1479.08 401.443C1468.9 400.259 1459.43 398.72 1450.67 396.827C1441.92 394.696 1434.22 391.855 1427.59 388.305C1420.97 384.754 1415.76 380.019 1411.97 374.101C1408.18 367.946 1406.29 360.135 1406.29 350.666C1406.29 339.54 1409.37 329.953 1415.52 321.904C1421.68 313.619 1430.08 307.227 1440.73 302.73C1451.62 298.232 1463.81 296.101 1477.31 296.338C1497.9 296.575 1514.94 301.428 1528.44 310.896C1542.17 320.365 1549.74 334.569 1551.16 353.506H1521.34C1520.39 344.274 1515.89 336.581 1507.84 330.426C1500.03 324.271 1489.85 321.194 1477.31 321.194C1464.76 321.194 1454.58 323.679 1446.77 328.651C1438.96 333.622 1435.05 340.25 1435.05 348.535C1435.05 355.163 1436.94 360.135 1440.73 363.449C1444.76 366.763 1450.2 369.13 1457.07 370.55C1463.93 371.734 1471.74 372.918 1480.5 374.101C1494.23 375.758 1506.66 378.126 1517.78 381.203C1529.15 384.28 1538.14 389.37 1544.77 396.471C1551.4 403.336 1554.71 413.515 1554.71 427.009C1554.71 438.135 1551.4 447.84 1544.77 456.125C1538.38 464.411 1529.74 470.802 1518.85 475.3C1507.96 479.561 1495.77 481.691 1482.28 481.691Z" fill="#549DFF"/>
<path d="M1217.02 352.794C1218.44 340.958 1222.46 330.897 1229.09 322.612C1235.72 314.09 1244.48 307.58 1255.36 303.083C1266.49 298.585 1279.27 296.336 1293.71 296.336C1316.91 296.336 1334.78 302.017 1347.33 313.38C1360.11 324.506 1366.51 340.603 1366.51 361.671V440.855C1366.51 445.589 1367.45 448.785 1369.35 450.442C1371.24 452.099 1374.2 452.928 1378.22 452.928H1387.46V479.559H1371.48C1358.46 479.559 1349.58 476.718 1344.85 471.037C1340.35 465.119 1338.34 457.07 1338.81 446.891L1339.16 440.855L1342.71 445.116C1337.27 454.585 1329.46 463.107 1319.28 470.682C1309.34 478.02 1295.61 481.689 1278.09 481.689C1264.83 481.689 1253.12 479.559 1242.94 475.298C1232.99 471.037 1225.18 465 1219.5 457.189C1214.06 449.14 1211.33 439.671 1211.33 428.782C1211.33 410.554 1217.49 396.588 1229.8 386.882C1242.34 377.177 1260.45 372.324 1284.13 372.324H1337.39V359.896C1337.39 348.06 1333.36 338.828 1325.32 332.199C1317.5 325.571 1306.5 322.257 1292.29 322.257C1279.51 322.257 1269.09 325.098 1261.05 330.779C1253 336.224 1248.03 343.562 1246.13 352.794H1217.02ZM1337.39 396.824H1281.29C1268.27 396.824 1258.2 399.31 1251.1 404.281C1244.24 409.016 1240.81 416.591 1240.81 427.007C1240.81 435.765 1244.36 442.985 1251.46 448.667C1258.56 454.111 1268.15 456.833 1280.22 456.833C1292.29 456.833 1302.59 454.703 1311.11 450.442C1319.63 445.944 1326.14 439.908 1330.64 432.333C1335.14 424.521 1337.39 415.644 1337.39 405.702V396.824Z" fill="#2F45B5"/>
<path d="M1109.89 298.469H1135.1L1140.78 338.948L1135.81 331.491C1138.65 326.284 1142.2 321.194 1146.46 316.223C1150.73 311.015 1156.64 306.754 1164.22 303.44C1171.79 300.126 1181.62 298.469 1193.69 298.469H1201.86V326.875H1187.3C1174.75 326.875 1164.93 329.953 1157.83 336.108C1150.73 342.026 1145.75 349.601 1142.91 358.833C1140.31 368.065 1139.01 377.534 1139.01 387.24V479.561H1109.89V298.469Z" fill="#2F45B5"/>
<path d="M1053.06 479.557C1035.78 479.557 1023.59 475.651 1016.49 467.839C1009.38 460.027 1005.83 448.191 1005.83 432.331V325.096H973.165V298.464H1005.83V247.688H1034.95V298.464H1081.82V325.096H1034.95V431.976C1034.95 439.551 1036.49 444.995 1039.57 448.309C1042.64 451.387 1048.09 452.926 1055.9 452.926H1084.66V479.557H1053.06Z" fill="#2F45B5"/>
<path d="M880.558 481.689C862.567 481.689 846.825 477.783 833.332 469.972C819.839 462.16 809.304 451.389 801.729 437.659C794.391 423.692 790.722 407.477 790.722 389.013C790.722 370.548 794.273 354.451 801.374 340.721C808.713 326.755 818.773 315.866 831.556 308.054C844.576 300.242 859.608 296.336 876.652 296.336C893.696 296.336 908.491 299.768 921.037 306.633C933.82 313.498 943.762 323.322 950.864 336.105C958.203 348.888 962.108 364.275 962.582 382.266C962.582 384.16 962.464 386.172 962.227 388.302C962.227 390.433 962.108 392.563 961.872 394.694H821.259C821.259 394.931 821.259 395.286 821.259 395.759C821.259 396.233 821.259 396.706 821.259 397.18C821.732 408.542 824.218 418.721 828.716 427.717C833.45 436.475 840.078 443.34 848.6 448.311C857.122 453.283 867.065 455.768 878.427 455.768C891.21 455.768 902.218 452.572 911.45 446.181C920.682 439.553 926.837 430.439 929.914 418.84H959.386C957.019 430.912 952.284 441.683 945.183 451.152C938.081 460.621 928.967 468.078 917.841 473.522C906.952 478.967 894.524 481.689 880.558 481.689ZM823.034 370.548H931.335C929.914 354.925 924.233 342.97 914.291 334.685C904.585 326.163 892.157 321.902 877.007 321.902C868.248 321.902 859.845 323.914 851.796 327.938C843.984 331.963 837.474 337.644 832.266 344.982C827.059 352.084 823.981 360.606 823.034 370.548Z" fill="#2F45B5"/>
<path d="M747.215 479.557C729.935 479.557 717.744 475.651 710.642 467.839C703.54 460.027 699.989 448.191 699.989 432.331V325.096H667.322V298.464H699.989V247.688H729.106V298.464H775.977V325.096H729.106V431.976C729.106 439.551 730.645 444.995 733.722 448.309C736.8 451.387 742.244 452.926 750.056 452.926H778.818V479.557H747.215Z" fill="#2F45B5"/>
<path fill-rule="evenodd" clip-rule="evenodd" d="M494.726 368.437C494.726 399.137 469.84 424.023 439.14 424.023C418.353 424.023 400.23 412.611 390.7 395.714C390.607 395.534 390.506 395.36 390.406 395.185C386.039 387.249 383.555 378.135 383.555 368.437C383.555 337.738 408.441 312.852 439.14 312.852C469.84 312.852 494.726 337.738 494.726 368.437Z" fill="#2F45B5"/>
<path fill-rule="evenodd" clip-rule="evenodd" d="M555 512.095C555 543.351 529.665 568.686 498.41 568.686C467.155 568.686 441.82 543.351 441.82 512.095C441.82 496.022 448.517 481.516 459.279 471.21C459.306 471.183 459.333 471.156 459.366 471.129C459.741 470.774 460.123 470.419 460.511 470.071C465.26 465.376 468.206 458.867 468.206 451.661C468.206 444.455 465.286 438.006 460.578 433.318C465.173 431.804 469.552 429.808 473.658 427.391V427.531C473.658 442.359 485.163 454.507 499.736 455.525C500.319 455.565 500.901 455.585 501.497 455.592C531.32 457.193 555 481.878 555 512.095Z" fill="#2F45B5"/>
<path fill-rule="evenodd" clip-rule="evenodd" d="M372.37 382.911C371.185 382.737 369.98 382.65 368.747 382.65C356.753 382.65 346.734 391.108 344.33 402.386C344.243 402.955 344.142 403.518 344.028 404.08C337.218 440.593 305.179 468.225 266.691 468.225C223.233 468.225 188 432.992 188 389.534C188 346.077 223.233 310.844 266.691 310.844C298.796 310.844 326.415 330.078 338.651 357.65C338.678 357.71 338.704 357.77 338.724 357.83C338.892 358.185 339.046 358.547 339.2 358.909C339.207 358.929 339.213 358.949 339.227 358.969C343.064 367.226 351.435 372.952 361.146 372.952C364.609 372.952 367.904 372.222 370.877 370.91C371.018 375.015 371.527 379.027 372.37 382.911Z" fill="#2F45B5"/>
<path fill-rule="evenodd" clip-rule="evenodd" d="M548.302 237.84C548.302 264.44 527.34 286.152 501.034 287.344C500.894 287.338 500.753 287.338 500.612 287.338C500.016 287.338 499.42 287.358 498.831 287.398C486.348 288.235 476.248 297.778 474.567 310.021C471.018 307.864 467.261 306.016 463.323 304.529C467.207 300.323 469.578 294.698 469.578 288.516C469.578 282.335 467.254 276.823 463.437 272.624C463.39 272.571 463.343 272.524 463.296 272.47C463.089 272.242 462.874 272.021 462.653 271.8L462.613 271.76C454.282 262.9 449.186 250.966 449.186 237.84C449.186 210.469 471.373 188.281 498.744 188.281C526.115 188.281 548.302 210.469 548.302 237.84Z" fill="#2F45B5"/>
</svg>
